<?xml version="1.0" encoding="utf-8"?>
<!-- Generator: Adobe Illustrator 16.2.1, SVG Export Plug-In . SVG Version: 6.00 Build 0)  -->
<!DOCTYPE svg PUBLIC "-//W3C//DTD SVG 1.1//EN" "http://www.w3.org/Graphics/SVG/1.1/DTD/svg11.dtd">
<svg version="1.1" id="Layer_4" xmlns="http://www.w3.org/2000/svg" xmlns:xlink="http://www.w3.org/1999/xlink" x="0px" y="0px"
	 width="160px" height="160px" viewBox="0 0 160 160" enable-background="new 0 0 160 160" xml:space="preserve">
<g>
	<path fill="#FFFFFF" d="M80.312,156.312c-42.251,0-76.625-34.374-76.625-76.626c0-42.251,34.374-76.625,76.625-76.625
		s76.625,34.374,76.625,76.625C156.938,121.938,122.563,156.312,80.312,156.312z"/>
	<path fill="#444444" d="M80.312,5.562c40.873,0,74.125,33.252,74.125,74.125c0,40.874-33.252,74.126-74.125,74.126
		c-40.873,0-74.125-33.252-74.125-74.126C6.188,38.814,39.44,5.562,80.312,5.562 M80.312,0.562c-43.7,0-79.125,35.425-79.125,79.125
		c0,43.7,35.425,79.126,79.125,79.126c43.699,0,79.125-35.426,79.125-79.126C159.438,35.987,124.012,0.562,80.312,0.562
		L80.312,0.562z"/>
</g>
<g>
	<path fill="#444444" d="M126.583,68.747c-0.542-4.743-13.296,0-13.296,0l-0.745,6.733c-0.286-0.155-0.562-0.307-0.858-0.439
		l-3.229-14.062c-1.176-6.685-6.225-11.618-13.593-11.364H75.956c-0.124,0.787-0.307,1.543-0.532,2.29h20.715
		c4.303,0,8.237,2.77,9.311,7.327l3.465,13.88c-0.215-0.012-0.44-0.032-0.654-0.032H68.147l0.01,13.533h24.844v3.024H68.158v0.88
		h24.598v3.034H68.158l0.011,11.364h26.528v7.194c0,2.924,3.619,5.305,8.085,5.305c4.455,0,8.073-2.371,8.073-5.305v-8.021
		c3.812-1.441,6.459-4.6,6.459-8.258V82.952c0-2.852-1.605-5.386-4.089-7.051l13.357-0.715
		C126.583,75.186,127.115,73.476,126.583,68.747L126.583,68.747z M111.275,93.326H96.701v-6.93h14.574V93.326z M111.275,93.326"/>
	<rect x="67.79" y="90.516" fill="#444444" width="0.368" height="3.034"/>
	<rect x="68.045" y="86.611" fill="#444444" width="0.112" height="3.024"/>
	<path fill="#444444" d="M73.085,47.581c-0.01-5.815-3.179-10.883-7.881-13.581v12.539l-7.789,4.496l-7.796-4.506V34
		c-4.701,2.698-7.869,7.766-7.869,13.581c0,6.091,3.495,11.375,8.583,13.971v51.661c0,2.044,0.831,3.884,2.167,5.232
		c1.34,1.339,3.19,2.146,5.233,2.156c4.068,0,7.381-3.301,7.391-7.389l-0.032-51.988C69.865,58.538,73.075,53.425,73.085,47.581
		L73.085,47.581z M59.357,116.482c-1.102,1.104-2.891,1.104-3.995,0c-1.093-1.103-1.093-2.881,0.011-3.985
		c1.104-1.104,2.891-1.104,3.984-0.011C60.461,113.591,60.461,115.38,59.357,116.482L59.357,116.482z M59.357,116.482"/>
</g>
</svg>
