<svg width="64" height="64" xmlns="http://www.w3.org/2000/svg">
 <g>
  <title>background</title>
  <rect x="-1" y="-1" width="66" height="66" id="canvas_background" fill="none"/>
 </g>

 <g>
  <title>Layer 1</title>
  <g id="svg_1">
   <g fill="#000000" id="svg_2">
    <path d="m46.74,25.293l-14.474,14.475l-14.485,-14.487c-0.781,-0.781 -2.047,-0.781 -2.828,0c-0.781,0.779 -0.781,2.047 0,2.828l15.879,15.883c0.248,0.248 0.588,0.436 0.928,0.525c0.17,0.045 0.344,0.068 0.516,0.068c0.523,0 1.035,-0.207 1.414,-0.586l15.879,-15.879c0.781,-0.781 0.781,-2.047 0,-2.828s-2.048,-0.78 -2.829,0.001z" id="svg_3"/>
    <path d="m32,0c-17.645,0 -32,14.355 -32,32s14.355,32 32,32s32,-14.355 32,-32s-14.355,-32 -32,-32zm0,60c-15.439,0 -28,-12.561 -28,-28s12.561,-28 28,-28s28,12.561 28,28s-12.561,28 -28,28z" id="svg_4"/>
   </g>
  </g>
 </g>
</svg>