<svg width="64" height="64" xmlns="http://www.w3.org/2000/svg">

 <g>
  <title>background</title>
  <rect fill="none" id="canvas_background" height="66" width="66" y="-1" x="-1"/>
 </g>
 <g>
  <title>Layer 1</title>
  <g stroke="null" id="svg_1">
   <g stroke="null" id="svg_2">
    <g stroke="null" id="svg_3">
     <g stroke="null" id="svg_4">
      <path stroke="null" id="svg_5" fill="#010002" d="m31.994941,0c-17.669706,0 -31.994941,14.269185 -31.994941,31.869753c0,17.604847 14.325236,31.869753 31.994941,31.869753c17.674001,0 31.994941,-14.264906 31.994941,-31.869753c-0.000134,-17.600569 -14.321075,-31.869753 -31.994941,-31.869753zm0,59.490144c-15.289236,0 -27.728887,-12.390978 -27.728887,-27.62039s12.439517,-27.620524 27.728887,-27.620524s27.728887,12.390978 27.728887,27.62039s-12.439651,27.620524 -27.728887,27.620524z"/>
      <path stroke="null" id="svg_6" fill="#010002" d="m35.812955,16.194053c-0.831923,-0.832813 -2.201281,-0.832813 -3.028908,0c-0.840379,0.832813 -0.840379,2.188389 0,3.021202l11.300623,12.730841l-11.300623,12.730841c-0.840379,0.832813 -0.840379,2.196946 0,3.021202c0.831923,0.832813 2.196985,0.832813 3.028908,0l12.623002,-14.213833c0.43086,-0.429175 0.627097,-0.98162 0.622801,-1.53821c0.004295,-0.552445 -0.196236,-1.113314 -0.622801,-1.533931l-12.623002,-14.218112z"/>
      <path stroke="null" id="svg_7" fill="#010002" d="m33.756771,31.946229c0.00859,-0.552445 -0.196236,-1.117592 -0.622801,-1.533931l-12.623136,-14.218245c-0.836084,-0.832813 -2.196985,-0.832813 -3.033069,0c-0.836084,0.832813 -0.836084,2.188389 0,3.021202l11.304918,12.730841l-11.304918,12.730841c-0.836084,0.832813 -0.836084,2.196946 0,3.021202c0.836084,0.832813 2.196985,0.832813 3.033069,0l12.627297,-14.213833c0.422404,-0.420618 0.627097,-0.977208 0.61864,-1.538076z"/>
     </g>
    </g>
   </g>
  </g>
  <g id="svg_8"/>
  <g id="svg_9"/>
  <g id="svg_10"/>
  <g id="svg_11"/>
  <g id="svg_12"/>
  <g id="svg_13"/>
  <g id="svg_14"/>
  <g id="svg_15"/>
  <g id="svg_16"/>
  <g id="svg_17"/>
  <g id="svg_18"/>
  <g id="svg_19"/>
  <g id="svg_20"/>
  <g id="svg_21"/>
  <g id="svg_22"/>
 </g>
</svg>