<svg width="64" height="64" xmlns="http://www.w3.org/2000/svg">
 <g>
  <title>background</title>
  <rect x="-1" y="-1" width="66" height="66" id="canvas_background" fill="none"/>
 </g>

 <g>
  <title>Layer 1</title>
  <g id="svg_1">
   <g fill="#000000" id="svg_2">
    <circle cx="33.301" cy="12.434" r="2.25" id="svg_3"/>
    <path d="m32,0c-17.645,0 -32,14.355 -32,32s14.355,32 32,32s32,-14.355 32,-32s-14.355,-32 -32,-32zm0,60c-15.439,0 -28,-12.561 -28,-28s12.561,-28 28,-28s28,12.561 28,28s-12.561,28 -28,28z" id="svg_4"/>
    <path d="m36.691,47.554c-4.176,4.728 -7.225,3.191 -7.312,3.146c-0.094,-0.056 -0.193,-0.104 -0.295,-0.144c-0.27,-0.105 -0.67,-0.337 -1.016,-1.126c-2.43,-5.55 3.109,-22.257 5.447,-28.227c0.258,-0.657 0.15,-1.401 -0.283,-1.959c-0.436,-0.557 -1.137,-0.85 -1.83,-0.755l-4.07,0.519c-1.096,0.14 -1.871,1.142 -1.732,2.237c0.141,1.095 1.162,1.869 2.236,1.731l0.793,-0.102c-2.381,6.691 -7.082,21.63 -4.225,28.158c0.67,1.529 1.746,2.636 3.117,3.205c0.447,0.225 1.646,0.732 3.328,0.732c2.281,0 5.449,-0.934 8.838,-4.77c0.732,-0.828 0.654,-2.092 -0.174,-2.823c-0.825,-0.728 -2.089,-0.65 -2.822,0.178z" id="svg_5"/>
   </g>
  </g>
 </g>
</svg>