<svg width="64" height="64" xmlns="http://www.w3.org/2000/svg">
 <g>
  <title>background</title>
  <rect x="-1" y="-1" width="66" height="66" id="canvas_background" fill="none"/>
 </g>

 <g>
  <title>Layer 1</title>
  <g id="svg_1">
   <g fill="#000000" id="svg_2">
    <path d="m8.135,22.824c1.154,0 2.088,-0.936 2.088,-2.088s-0.934,-2.088 -2.088,-2.088c-4.485,0 -8.135,3.145 -8.135,7.012l0,17.793c0,3.867 3.65,7.012 8.135,7.012c1.154,0 2.088,-0.935 2.088,-2.088c0,-1.153 -0.934,-2.087 -2.088,-2.087c-2.145,0 -3.959,-1.298 -3.959,-2.836l0,-17.794c0,-1.537 1.814,-2.836 3.959,-2.836z" id="svg_3"/>
    <path d="m33.404,63.857c0.35,0 0.7,-0.088 1.018,-0.265c0.66,-0.369 1.07,-1.066 1.07,-1.823l0,-55.324c0,-0.763 -0.417,-1.465 -1.086,-1.831c-0.668,-0.366 -1.483,-0.34 -2.127,0.072l-20.335,13.007c-0.601,0.383 -0.963,1.046 -0.963,1.758l0,29.785c0,0.725 0.375,1.398 0.993,1.776l20.332,12.534c0.338,0.207 0.719,0.311 1.098,0.311zm-2.089,-5.827l-16.158,-9.959l0,-27.476l16.158,-10.336l0,47.771z" id="svg_4"/>
   </g>
  </g>
 </g>
</svg>