<svg width="64" height="64" xmlns="http://www.w3.org/2000/svg">
 <g>
  <title>background</title>
  <rect x="-1" y="-1" width="66" height="66" id="canvas_background" fill="none"/>
 </g>

 <g>
  <title>Layer 1</title>
  <g id="svg_1">
   <g id="svg_2" stroke="null">
    <g id="svg_3" stroke="null">
     <path d="m41.40068,18.63986c-1.06836,1.0651 -1.06836,2.6628 0,3.72802c2.67097,2.6628 4.00646,5.85834 4.00646,9.58623c0,7.45592 -5.87631,13.31426 -13.35511,13.31426s-13.35498,-5.85834 -13.35498,-13.31426c0,-3.72802 1.33549,-6.92343 4.00658,-9.58623c1.06836,-1.0651 1.06836,-2.6628 0,-3.72802c-1.06836,-1.0651 -2.67097,-1.0651 -3.73946,0c-3.47234,3.46172 -5.60919,8.25483 -5.60919,13.31426c0,10.38503 8.28016,18.63986 18.69705,18.63986s18.69705,-8.25483 18.69705,-18.63986c0,-5.05942 -2.13673,-9.85254 -5.60919,-13.31426c-1.06824,-1.0651 -2.67085,-1.0651 -3.73921,0l0,0z" id="svg_4" stroke="null"/>
     <path d="m32.05216,31.95412c1.60261,0 2.67097,-1.0651 2.67097,-2.6628l0,-15.97706c0,-1.59771 -1.06836,-2.6628 -2.67097,-2.6628s-2.67097,1.0651 -2.67097,2.6628l0,15.97706c0,1.59771 1.06836,2.6628 2.67097,2.6628z" id="svg_5" stroke="null"/>
     <path d="m32.05216,0c-17.62869,0 -32.05216,14.37935 -32.05216,31.95412s14.42347,31.95412 32.05216,31.95412s32.05216,-14.37935 32.05216,-31.95412s-14.42347,-31.95412 -32.05216,-31.95412zm0,58.58251c-14.69059,0 -26.71009,-11.98273 -26.71009,-26.62839s12.0195,-26.62839 26.71009,-26.62839s26.71009,11.98273 26.71009,26.62839s-12.0195,26.62839 -26.71009,26.62839z" id="svg_6" stroke="null"/>
    </g>
   </g>
  </g>
  <g id="svg_7"/>
  <g id="svg_8"/>
  <g id="svg_9"/>
  <g id="svg_10"/>
  <g id="svg_11"/>
  <g id="svg_12"/>
  <g id="svg_13"/>
  <g id="svg_14"/>
  <g id="svg_15"/>
  <g id="svg_16"/>
  <g id="svg_17"/>
  <g id="svg_18"/>
  <g id="svg_19"/>
  <g id="svg_20"/>
  <g id="svg_21"/>
 </g>
</svg>