<svg width="64" height="64" xmlns="http://www.w3.org/2000/svg">

 <g>
  <title>background</title>
  <rect fill="none" id="canvas_background" height="66" width="66" y="-1" x="-1"/>
 </g>
 <g>
  <title>Layer 1</title>
  <g stroke="null" id="svg_1">
   <path stroke="null" id="svg_2" fill="#000002" d="m31.983909,0c-17.635823,0 -31.983909,14.329156 -31.983909,31.942007s14.347845,31.942007 31.983668,31.942007s31.983427,-14.329156 31.983427,-31.942007s-14.347363,-31.942007 -31.983186,-31.942007zm0,60.273442c-15.642598,0 -28.368628,-12.709213 -28.368628,-28.331435s12.72603,-28.331435 28.368628,-28.331435c15.642116,0 28.368146,12.709454 28.368146,28.331435s-12.72603,28.331435 -28.368146,28.331435z"/>
   <path stroke="null" id="svg_3" fill="#000002" d="m38.983575,29.773257l-18.818502,-12.306995c-0.462997,-0.302807 -0.972029,-0.462875 -1.471901,-0.462875c-1.330664,0 -2.334507,1.082209 -2.334507,2.517291l0,24.842419c0,1.434841 1.003361,2.51705 2.334266,2.517291l0.000241,0c0.499873,0 1.009145,-0.160069 1.47166,-0.462635l18.818984,-12.30531c0.783552,-0.512701 1.233052,-1.303416 1.233052,-2.169713c0,-0.866056 -0.4495,-1.656771 -1.233293,-2.169472zm-19.00963,12.453825l0,-20.569668l15.727919,10.285556l-15.727919,10.284112z"/>
   <path stroke="null" id="svg_4" fill="#000002" d="m44.447711,16.512108c-0.9983,0 -1.807641,0.808287 -1.807641,1.805286l0,27.249467c0,0.996999 0.809341,1.805286 1.807641,1.805286c0.998541,0 1.807641,-0.808287 1.807641,-1.805286l0,-27.249467c0,-0.99724 -0.8091,-1.805286 -1.807641,-1.805286z"/>
  </g>
  <g id="svg_5"/>
  <g id="svg_6"/>
  <g id="svg_7"/>
  <g id="svg_8"/>
  <g id="svg_9"/>
  <g id="svg_10"/>
  <g id="svg_11"/>
  <g id="svg_12"/>
  <g id="svg_13"/>
  <g id="svg_14"/>
  <g id="svg_15"/>
  <g id="svg_16"/>
  <g id="svg_17"/>
  <g id="svg_18"/>
  <g id="svg_19"/>
 </g>
</svg>