<svg width="64" height="64" xmlns="http://www.w3.org/2000/svg">

 <g>
  <title>background</title>
  <rect fill="none" id="canvas_background" height="66" width="66" y="-1" x="-1"/>
 </g>
 <g>
  <title>Layer 1</title>
  <g stroke="null" id="svg_1">
   <g stroke="null" id="svg_2">
    <g stroke="null" id="svg_3">
     <g stroke="null" id="svg_4">
      <path stroke="null" id="svg_5" fill="#090509" d="m31.977044,0c-17.659822,0 -31.977044,14.290223 -31.977044,31.916741c0,17.630803 14.317222,31.916741 31.977044,31.916741c17.664114,0 31.977044,-14.285938 31.977044,-31.916741c-0.000134,-17.626518 -14.313064,-31.916741 -31.977044,-31.916741zm0,59.577855c-15.280683,0 -27.713376,-12.409247 -27.713376,-27.661113s12.432558,-27.661247 27.713376,-27.661247s27.713376,12.409247 27.713376,27.661113s-12.432693,27.661247 -27.713376,27.661247z"/>
      <path stroke="null" id="svg_6" fill="#090509" d="m19.898237,31.835868l11.298594,-12.749611c0.839909,-0.83404 0.839909,-2.191616 0,-3.025656c-0.835616,-0.83404 -2.195756,-0.83404 -3.031373,0l-12.615941,14.23479c-0.426327,0.425523 -0.631038,0.983067 -0.622453,1.540478c-0.004293,0.55326 0.196126,1.11924 0.622453,1.544762l12.615941,14.239074c0.835616,0.82989 2.195756,0.82989 3.031373,0c0.839909,-0.82989 0.839909,-2.1959 0,-3.025656l-11.298594,-12.758181z"/>
      <path stroke="null" id="svg_7" fill="#090509" d="m46.490259,16.060467c-0.835616,-0.83404 -2.200049,-0.83404 -3.031373,0l-12.620233,14.23479c-0.426327,0.425523 -0.631038,0.983067 -0.622453,1.540478c-0.004293,0.55326 0.196126,1.11924 0.622453,1.544762l12.611782,14.239074c0.839909,0.82989 2.200049,0.82989 3.031373,0c0.839909,-0.82989 0.839909,-2.1959 0,-3.025656l-11.294301,-12.753896l11.294301,-12.749611c0.844202,-0.838325 0.844202,-2.1959 0.008451,-3.029941z"/>
     </g>
    </g>
   </g>
  </g>
  <g id="svg_8"/>
  <g id="svg_9"/>
  <g id="svg_10"/>
  <g id="svg_11"/>
  <g id="svg_12"/>
  <g id="svg_13"/>
  <g id="svg_14"/>
  <g id="svg_15"/>
  <g id="svg_16"/>
  <g id="svg_17"/>
  <g id="svg_18"/>
  <g id="svg_19"/>
  <g id="svg_20"/>
  <g id="svg_21"/>
  <g id="svg_22"/>
 </g>
</svg>