<svg width="64" height="64" xmlns="http://www.w3.org/2000/svg">
 <g>
  <title>background</title>
  <rect x="-1" y="-1" width="66" height="66" id="canvas_background" fill="none"/>
 </g>

 <g>
  <title>Layer 1</title>
  <g id="svg_1">
   <g fill="#000000" id="svg_2">
    <path d="m28.154,14.479c-0.781,-0.781 -2.046,-0.781 -2.825,0c-0.781,0.78 -0.781,2.045 0,2.824l14.46,14.463l-14.473,14.47c-0.78,0.78 -0.78,2.045 0,2.826c0.391,0.389 0.901,0.584 1.413,0.584c0.511,0 1.022,-0.195 1.413,-0.584l15.866,-15.865c0.218,-0.22 0.394,-0.516 0.491,-0.811c0.24,-0.718 0.053,-1.51 -0.481,-2.045l-15.864,-15.862z" id="svg_3"/>
    <path d="m32.029,0.059c-17.628,0 -31.97,14.341 -31.97,31.97s14.342,31.971 31.97,31.971s31.971,-14.342 31.971,-31.971s-14.343,-31.97 -31.971,-31.97zm0,59.945c-15.425,0 -27.975,-12.549 -27.975,-27.975s12.55,-27.974 27.975,-27.974s27.975,12.549 27.975,27.975s-12.55,27.974 -27.975,27.974z" id="svg_4"/>
   </g>
  </g>
 </g>
</svg>