<svg width="64" height="64" xmlns="http://www.w3.org/2000/svg">
 <g>
  <title>background</title>
  <rect x="-1" y="-1" width="66" height="66" id="canvas_background" fill="none"/>
 </g>

 <g>
  <title>Layer 1</title>
  <g id="svg_1">
   <g fill="#000000" id="svg_2">
    <path d="m33.17,20.01c-0.201,-0.202 -0.477,-0.37 -0.742,-0.471c-0.74,-0.272 -1.562,-0.097 -2.117,0.459l-15.879,15.881c-0.781,0.781 -0.781,2.047 0,2.828s2.047,0.781 2.828,0l14.474,-14.477l14.486,14.486c0.391,0.391 0.902,0.586 1.414,0.586s1.023,-0.195 1.414,-0.586c0.781,-0.781 0.781,-2.047 0,-2.828l-15.878,-15.878z" id="svg_3"/>
    <path d="m32,0c-17.645,0 -32,14.355 -32,32s14.355,32 32,32s32,-14.355 32,-32s-14.355,-32 -32,-32zm0,60c-15.439,0 -28,-12.561 -28,-28s12.561,-28 28,-28s28,12.561 28,28s-12.561,28 -28,28z" id="svg_4"/>
   </g>
  </g>
 </g>
</svg>