<svg width="64" height="64" xmlns="http://www.w3.org/2000/svg">
 <g>
  <title>background</title>
  <rect x="-1" y="-1" width="66" height="66" id="canvas_background" fill="none"/>
 </g>

 <g>
  <title>Layer 1</title>
  <g id="svg_1">
   <g fill="#000000" id="svg_2">
    <path d="m8.156,22.715c1.155,0 2.093,-0.938 2.093,-2.094s-0.938,-2.093 -2.093,-2.093c-4.497,0 -8.156,3.153 -8.156,7.03l0,17.841c0,3.877 3.659,7.03 8.156,7.03c1.155,0 2.093,-0.937 2.093,-2.094c0,-1.156 -0.938,-2.093 -2.093,-2.093c-2.153,0 -3.97,-1.302 -3.97,-2.843l0,-17.841c0.001,-1.541 1.817,-2.843 3.97,-2.843z" id="svg_3"/>
    <path d="m33.492,63.857c0.352,0 0.703,-0.088 1.018,-0.266c0.663,-0.37 1.076,-1.069 1.076,-1.828l0,-55.471c0,-0.765 -0.417,-1.469 -1.091,-1.836c-0.668,-0.367 -1.485,-0.34 -2.132,0.072l-20.388,13.042c-0.601,0.385 -0.965,1.049 -0.965,1.763l0,29.864c0,0.727 0.375,1.402 0.994,1.781l20.389,12.567c0.336,0.208 0.717,0.312 1.099,0.312zm-2.093,-5.842l-16.203,-9.986l0,-27.55l16.203,-10.364l0,47.9z" id="svg_4"/>
    <path d="m43.316,43.347c0.147,0.031 0.295,0.045 0.438,0.045c0.968,0 1.836,-0.675 2.044,-1.66c1.75,-8.265 0.058,-15.192 -0.016,-15.482c-0.282,-1.12 -1.415,-1.797 -2.536,-1.521c-1.122,0.279 -1.803,1.415 -1.526,2.536c0.015,0.062 1.523,6.32 -0.019,13.601c-0.236,1.131 0.485,2.241 1.615,2.481z" id="svg_5"/>
   </g>
  </g>
 </g>
</svg>