<svg width="64" height="64" xmlns="http://www.w3.org/2000/svg">
 <g>
  <title>background</title>
  <rect x="-1" y="-1" width="66" height="66" id="canvas_background" fill="none"/>
 </g>

 <g>
  <title>Layer 1</title>
  <g id="svg_1">
   <g fill="#000000" id="svg_2">
    <path d="m46.355,17.979c-0.779,-0.78 -2.043,-0.78 -2.821,0l-11.594,11.591l-11.591,-11.591c-0.779,-0.78 -2.044,-0.78 -2.822,0c-0.778,0.779 -0.778,2.043 0,2.823l11.499,11.5l-11.492,11.489c-0.778,0.779 -0.778,2.043 0,2.822c0.392,0.391 0.903,0.586 1.414,0.586s1.02,-0.195 1.411,-0.586l11.581,-11.579l11.583,11.579c0.39,0.391 0.899,0.586 1.41,0.586c0.512,0 1.024,-0.195 1.412,-0.586c0.779,-0.779 0.779,-2.043 0,-2.822l-11.489,-11.488l11.499,-11.5c0.78,-0.781 0.78,-2.044 0,-2.824z" id="svg_3"/>
    <path d="m31.94,0c-17.61,0 -31.94,14.328 -31.94,31.941c0,17.611 14.33,31.94 31.94,31.94c17.611,0 31.941,-14.329 31.941,-31.94c0.001,-17.613 -14.329,-31.941 -31.941,-31.941zm0,59.89c-15.411,0 -27.948,-12.538 -27.948,-27.948c0,-15.412 12.537,-27.949 27.948,-27.949c15.412,0 27.949,12.537 27.949,27.949c0.001,15.41 -12.536,27.948 -27.949,27.948z" id="svg_4"/>
   </g>
  </g>
 </g>
</svg>