<svg width="64" height="64" xmlns="http://www.w3.org/2000/svg">
 <g>
  <title>background</title>
  <rect x="-1" y="-1" width="66" height="66" id="canvas_background" fill="none"/>
 </g>

 <g>
  <title>Layer 1</title>
  <g id="svg_1">
   <g fill="#000000" id="svg_2">
    <path d="m38.719,14.973c-0.781,-0.781 -2.046,-0.781 -2.828,0l-15.879,15.88c-0.207,0.204 -0.375,0.481 -0.477,0.755c-0.266,0.73 -0.086,1.551 0.465,2.102l15.879,15.879c0.391,0.392 0.902,0.586 1.414,0.586s1.023,-0.194 1.415,-0.586c0.78,-0.781 0.78,-2.046 0,-2.827l-14.473,-14.477l14.483,-14.484c0.782,-0.781 0.782,-2.047 0.001,-2.828z" id="svg_3"/>
    <path d="m32,0.021c-17.645,0 -32,14.354 -32,32c0,17.645 14.355,32 32,32s32,-14.355 32,-32c0,-17.645 -14.355,-32 -32,-32zm0,60c-15.438,0 -28,-12.561 -28,-28s12.562,-28 28,-28c15.439,0 28,12.561 28,28s-12.561,28 -28,28z" id="svg_4"/>
   </g>
  </g>
 </g>
</svg>