<svg width="64" height="64" xmlns="http://www.w3.org/2000/svg">
 <g>
  <title>background</title>
  <rect x="-1" y="-1" width="66" height="66" id="canvas_background" fill="none"/>
 </g>

 <g>
  <title>Layer 1</title>
  <g id="svg_1">
   <g fill="#000000" id="svg_2">
    <path d="m46.025,18.086l-21.914,24.221l-6.91,-7.637c-0.74,-0.82 -2.006,-0.881 -2.824,-0.142c-0.818,0.741 -0.883,2.006 -0.141,2.825l8.048,8.894c0.368,0.536 0.979,0.85 1.627,0.85c0.073,0 0.146,-0.03 0.22,-0.039c0.051,0.004 0.1,0.032 0.15,0.032c0.592,0 1.166,-0.266 1.555,-0.725l23.154,-25.595c0.742,-0.82 0.678,-2.085 -0.141,-2.826c-0.818,-0.741 -2.083,-0.68 -2.824,0.142z" id="svg_3"/>
    <path d="m31.998,0c-17.644,0 -31.998,14.355 -31.998,32s14.354,32 31.998,32c17.647,0 32.002,-14.355 32.002,-32s-14.355,-32 -32.002,-32zm0,60c-15.437,0 -27.998,-12.561 -27.998,-28s12.561,-28 27.998,-28c15.44,0 28.002,12.561 28.002,28s-12.562,28 -28.002,28z" id="svg_4"/>
   </g>
  </g>
 </g>
</svg>