<svg width="64" height="64" xmlns="http://www.w3.org/2000/svg">

 <g>
  <title>background</title>
  <rect fill="none" id="canvas_background" height="66" width="66" y="-1" x="-1"/>
 </g>
 <g>
  <title>Layer 1</title>
  <g stroke="null" id="svg_1">
   <path stroke="null" id="svg_2" fill="#000002" d="m31.96997,0c-17.628378,0 -31.96997,14.370676 -31.96997,32.03456s14.341592,32.03456 31.96997,32.03456c17.628137,0 31.969729,-14.370676 31.969729,-32.03456s-14.341592,-32.03456 -31.969729,-32.03456zm0,60.448329c-15.635781,0 -28.356265,-12.74628 -28.356265,-28.413768s12.720484,-28.413527 28.356265,-28.413527c15.63554,0 28.356024,12.74628 28.356024,28.413527s-12.720484,28.413768 -28.356024,28.413768z"/>
   <path stroke="null" id="svg_3" fill="#000002" d="m42.115568,17.643849l-20.291438,0c-2.324576,0 -4.21599,1.895249 -4.21599,4.224539l0,20.332587c0,2.32929 1.891413,4.224539 4.21599,4.224539l20.291438,0c2.324576,0 4.21599,-1.895249 4.21599,-4.224539l0,-20.332587c0,-2.32929 -1.891413,-4.224539 -4.21599,-4.224539zm0.602284,24.557126c0,0.3271 -0.275846,0.603506 -0.602284,0.603506l-20.291438,0c-0.326438,0 -0.602284,-0.276406 -0.602284,-0.603506l0,-20.332587c0,-0.3271 0.275846,-0.603506 0.602284,-0.603506l20.291438,0c0.326438,0 0.602284,0.276406 0.602284,0.603506l0,20.332587z"/>
  </g>
  <g id="svg_4"/>
  <g id="svg_5"/>
  <g id="svg_6"/>
  <g id="svg_7"/>
  <g id="svg_8"/>
  <g id="svg_9"/>
  <g id="svg_10"/>
  <g id="svg_11"/>
  <g id="svg_12"/>
  <g id="svg_13"/>
  <g id="svg_14"/>
  <g id="svg_15"/>
  <g id="svg_16"/>
  <g id="svg_17"/>
  <g id="svg_18"/>
 </g>
</svg>